Coordinates
version=1
nRows=39
nColumns=18
inDegrees=yes

Units are S.I. units (second, meters, Newtons, ...)
If the header above contains a line with 'inDegrees', this indicates whether rotational values are in degrees (yes) or radians (no).

endheader
time	ground_thorax_rot_x	ground_thorax_rot_y	ground_thorax_rot_z	ground_thorax_tx	ground_thorax_ty	ground_thorax_tz	clav_prot	clav_elev	scapula_abduction	scapula_elevation	scapula_upward_rot	scapula_winging	plane_elv	shoulder_elv	axial_rot	elbow_flexion	pro_sup
      3.97000000	     -3.87308467	     -4.68595140	     -8.09409926	     -0.00442738	      0.00511147	     -0.00739878	    -39.07460692	      6.28960451	     -1.99352836	     -4.34485137	     68.21305926	     -9.79843126	     43.76309813	     95.50201574	    -16.67618687	      0.00000000	     34.32000000
      3.98000000	     -3.83012368	     -4.63759244	     -8.22244182	     -0.00450527	      0.00501958	     -0.00748948	    -39.01025077	      6.31334651	     -1.95044264	     -4.32605030	     68.13997095	     -9.77889842	     43.83464177	     95.41938754	    -16.68554956	      0.00000000	     34.32000000
      3.99000000	     -3.90670325	     -4.91593327	     -8.11300069	     -0.00451038	      0.00519349	     -0.00728737	    -38.79786259	      6.40471154	     -1.79339519	     -4.25417285	     67.92137362	     -9.71773274	     44.26974307	     95.19534659	    -16.73370160	      0.00000000	     34.32000000
      4.00000000	     -3.91714226	     -5.03071299	     -8.05562474	     -0.00458533	      0.00521767	     -0.00726610	    -38.60471198	      6.55331971	     -1.61872130	     -4.14182894	     67.78327172	     -9.68034274	     44.53376619	     95.06574930	    -16.78040136	      0.00000000	     34.32000000
      4.01000000	     -3.89716849	     -4.96232960	     -8.17638960	     -0.00460417	      0.00506720	     -0.00734411	    -38.54029900	      6.58102754	     -1.55632704	     -4.11936218	     67.73510428	     -9.66111044	     44.63103767	     94.99920729	    -16.79423954	      0.00000000	     34.32000000
      4.02000000	     -3.86533347	     -5.08792203	     -8.03500651	     -0.00463930	      0.00528523	     -0.00717534	    -38.38153763	      6.58997839	     -1.40322570	     -4.10516692	     67.59588964	     -9.59637439	     45.10526756	     94.80408885	    -16.91315222	      0.00000000	     34.32000000
      4.03000000	     -3.85247106	     -5.00975122	     -8.16556179	     -0.00463055	      0.00511169	     -0.00729124	    -38.31316902	      6.62232297	     -1.33656267	     -4.07921068	     67.54614477	     -9.57705857	     45.21258934	     94.73417314	    -16.92979506	      0.00000000	     34.32000000
      4.04000000	     -3.82724427	     -5.21475525	     -7.92172254	     -0.00471019	      0.00521749	     -0.00720920	    -38.01966002	      6.92614383	     -1.05383287	     -3.85326592	     67.38242194	     -9.54258292	     45.70391434	     94.58669169	    -17.20074732	      0.00000000	     34.32000000
      4.05000000	     -3.85479390	     -5.27324958	     -7.96855457	     -0.00473869	      0.00524141	     -0.00720250	    -37.90188334	      6.94182483	     -0.91933412	     -3.83553066	     67.30727036	     -9.49694928	     46.02623399	     94.41200949	    -17.26078066	      0.00000000	     34.32000000
      4.06000000	     -3.81733792	     -5.52796263	     -7.86273763	     -0.00490755	      0.00526656	     -0.00704455	    -37.55126554	      7.02563446	     -0.52108982	     -3.75687477	     67.09233112	     -9.37368159	     46.29440384	     94.19649253	    -17.35049868	      0.00000000	     34.32000000
      4.07000000	     -3.73696145	     -5.68075763	     -7.88166991	     -0.00500789	      0.00532212	     -0.00673169	    -37.37527429	      6.92830868	     -0.39972183	     -3.81647384	     66.84201949	     -9.27730422	     46.67913092	     93.96046329	    -17.42121033	      0.00000000	     34.32000000
      4.08000000	     -3.62473879	     -5.68708141	     -7.88577904	     -0.00513223	      0.00535417	     -0.00655749	    -37.21244589	      6.83464604	     -0.25535082	     -3.87288686	     66.64845915	     -9.18588605	     47.03696720	     93.76447326	    -17.48573800	      0.00000000	     34.32000000
      4.09000000	     -3.64800154	     -5.72686421	     -7.86780970	     -0.00514739	      0.00540530	     -0.00652163	    -37.02173705	      6.79330960	     -0.09051610	     -3.89149152	     66.43891606	     -9.09907906	     47.45238276	     93.52653911	    -17.57074441	      0.00000000	     34.32000000
      4.10000000	     -3.71224134	     -5.71714180	     -7.89028655	     -0.00507985	      0.00537732	     -0.00666259	    -36.84206688	      6.82802204	      0.06546463	     -3.85776226	     66.26630624	     -9.03891775	     47.82605099	     93.28953616	    -17.64356104	      0.00000000	     34.32000000
      4.11000000	     -3.74854024	     -5.72403715	     -7.93395757	     -0.00495804	      0.00533726	     -0.00681118	    -36.66995567	      6.85902157	      0.18713006	     -3.82758606	     66.06631271	     -8.98220125	     48.26695492	     93.01293193	    -17.70677184	      0.00000000	     34.32000000
      4.12000000	     -3.73121458	     -5.74822098	     -7.96213538	     -0.00487247	      0.00528467	     -0.00689607	    -36.49512525	      6.82706014	      0.28112024	     -3.84135139	     65.80631052	     -8.90812988	     48.80138025	     92.70678490	    -17.76258174	      0.00000000	     34.32000000
      4.13000000	     -3.71119159	     -5.79897148	     -7.93728529	     -0.00488931	      0.00527107	     -0.00685988	    -36.29983774	      6.73403500	      0.32819358	     -3.89722504	     65.42679572	     -8.81128327	     49.43818716	     92.37896189	    -17.81120989	      0.00000000	     34.32000000
      4.14000000	     -3.65587165	     -5.85284846	     -7.93040883	     -0.00493871	      0.00531029	     -0.00673495	    -36.11454976	      6.62874951	      0.37345944	     -3.96128781	     65.06195167	     -8.71432456	     50.03234332	     92.06732668	    -17.87265048	      0.00000000	     34.32000000
      4.15000000	     -3.65304724	     -5.82211666	     -7.90099638	     -0.00497888	      0.00534240	     -0.00672480	    -35.91584733	      6.61618453	      0.40022275	     -3.96030286	     64.67717942	     -8.63979748	     50.52052780	     91.77212850	    -17.94046693	      0.00000000	     34.32000000
      4.16000000	     -3.66088416	     -5.73461317	     -7.90563106	     -0.00495938	      0.00536526	     -0.00683509	    -35.72994853	      6.68668390	      0.43070671	     -3.90154019	     64.35104470	     -8.59324996	     50.93584620	     91.49836182	    -18.01071480	      0.00000000	     34.32000000
      4.17000000	     -3.66807073	     -5.65398935	     -7.91236542	     -0.00492875	      0.00535226	     -0.00694592	    -35.56458590	      6.76815958	      0.46214657	     -3.83584297	     64.07253080	     -8.55699143	     51.35977698	     91.21580807	    -18.08903230	      0.00000000	     34.32000000
      4.18000000	     -3.64696367	     -5.61773571	     -7.88443760	     -0.00496080	      0.00535377	     -0.00693855	    -35.40995913	      6.82206737	      0.49113208	     -3.78938574	     63.80437637	     -8.51664156	     51.79813832	     90.89621684	    -18.18652385	      0.00000000	     34.32000000
      4.19000000	     -3.59926981	     -5.65975952	     -7.86364530	     -0.00508067	      0.00538162	     -0.00680305	    -35.24389339	      6.85204815	      0.52714664	     -3.75818234	     63.51322642	     -8.46513676	     52.24787922	     90.54326363	    -18.29978855	      0.00000000	     34.32000000
      4.20000000	     -3.54048731	     -5.74873399	     -7.86107456	     -0.00517592	      0.00542298	     -0.00663294	    -35.05043641	      6.84965845	      0.60027313	     -3.74676120	     63.19923388	     -8.39444795	     52.74682534	     90.17527111	    -18.40953370	      0.00000000	     34.32000000
      4.21000000	     -3.51080039	     -5.76564394	     -7.85974306	     -0.00521196	      0.00542118	     -0.00656903	    -34.82416455	      6.87711681	      0.70237410	     -3.71183796	     62.86198180	     -8.32040084	     53.21600351	     89.80931256	    -18.51391648	      0.00000000	     34.32000000
      4.22000000	     -3.49747685	     -5.66114700	     -7.83353396	     -0.00521528	      0.00545650	     -0.00666866	    -34.59246930	      6.97740784	      0.80997182	     -3.62576538	     62.54440641	     -8.26491424	     53.60139203	     89.48847213	    -18.63114565	      0.00000000	     34.32000000
      4.23000000	     -3.51262895	     -5.59876668	     -7.81368355	     -0.00519632	      0.00547350	     -0.00678239	    -34.40880214	      7.10273043	      0.89189724	     -3.52563914	     62.30409234	     -8.23341517	     54.02604568	     89.18854559	    -18.79251423	      0.00000000	     34.32000000
      4.24000000	     -3.53484655	     -5.64728114	     -7.79481516	     -0.00517856	      0.00545324	     -0.00687598	    -34.28247429	      7.13445482	      0.97339168	     -3.49403801	     62.15065888	     -8.19696181	     54.57860192	     88.85634629	    -19.00971325	      0.00000000	     34.32000000
      4.25000000	     -3.54432124	     -5.72942898	     -7.75732236	     -0.00516671	      0.00545946	     -0.00700532	    -34.19904999	      7.07248125	      1.02614100	     -3.53003240	     62.02009231	     -8.15053302	     55.19322401	     88.44020743	    -19.34177928	      0.00000000	     34.32000000
      4.26000000	     -3.57017684	     -5.77940848	     -7.79454743	     -0.00508745	      0.00542923	     -0.00709569	    -34.10720520	      7.07083253	      1.01776522	     -3.52358176	     61.81913998	     -8.11717503	     55.66013548	     88.07252093	    -19.60095717	      0.00000000	     34.32000000
      4.27000000	     -3.58006906	     -5.66072797	     -7.72691274	     -0.00510086	      0.00551497	     -0.00724780	    -33.97336527	      7.28907919	      0.90709677	     -3.36180084	     61.48341115	     -8.12667465	     55.93580250	     87.71062889	    -19.94354069	      0.00000000	     34.32000000
      4.28000000	     -3.50239845	     -5.42823315	     -7.64773976	     -0.00522061	      0.00548766	     -0.00732943	    -33.82211672	      7.73856536	      0.73749461	     -3.03900544	     61.12275989	     -8.18617073	     56.07149160	     87.48299314	    -20.42180176	      0.00000000	     34.32000000
      4.29000000	     -3.42601321	     -5.36727311	     -7.67389735	     -0.00524950	      0.00550089	     -0.00720057	    -33.68329873	      7.95287151	      0.70723657	     -2.87911430	     60.87474814	     -8.18819451	     56.28330723	     87.20128930	    -20.80769442	      0.00000000	     34.32000000
      4.30000000	     -3.34876729	     -5.39138240	     -7.66810252	     -0.00533942	      0.00553057	     -0.00700176	    -33.51864601	      7.95564605	      0.79270691	     -2.86224976	     60.63727908	     -8.12942037	     56.60017960	     86.80850548	    -21.06628278	      0.00000000	     34.32000000
      4.31000000	     -3.27884224	     -5.43463954	     -7.66897953	     -0.00541126	      0.00550010	     -0.00679115	    -33.34695544	      7.88511942	      0.89601050	     -2.89465161	     60.38062012	     -8.05054614	     56.93959038	     86.37635556	    -21.27302245	      0.00000000	     34.32000000
      4.32000000	     -3.25802694	     -5.45280114	     -7.67831176	     -0.00540708	      0.00547849	     -0.00677795	    -33.16841747	      7.83725751	      0.97336344	     -2.91010099	     60.08680798	     -7.97445539	     57.23268943	     85.94289024	    -21.48353770	      0.00000000	     34.32000000
      4.33000000	     -3.26856061	     -5.48631027	     -7.73661767	     -0.00530669	      0.00545437	     -0.00687488	    -32.99714423	      7.85237784	      0.98172871	     -2.88159879	     59.74810211	     -7.91499696	     57.54352397	     85.55388998	    -21.65009225	      0.00000000	     34.32000000
      4.34000000	     -3.26923045	     -5.51306857	     -7.77938701	     -0.00523206	      0.00542054	     -0.00691779	    -32.81478700	      7.89506818	      0.94667133	     -2.83142851	     59.34475356	     -7.85654759	     57.84913211	     85.14254025	    -21.79124193	      0.00000000	     34.32000000
      4.35000000	     -3.23810756	     -5.47671968	     -7.75813188	     -0.00527390	      0.00544291	     -0.00687172	    -32.62599091	      7.94607676	      0.92111546	     -2.77410256	     58.94248856	     -7.79737194	     58.06777836	     84.69598464	    -21.94529211	      0.00000000	     34.32000000
